<?xml version="1.0" encoding="UTF-8"?>
<svg version="1.1" xmlns="http://www.w3.org/2000/svg" width="33" height="33">
<path d="M0 0 C1.76150391 -0.02126953 1.76150391 -0.02126953 3.55859375 -0.04296875 C6.5625 0.1875 6.5625 0.1875 8.5625 2.1875 C8.665625 2.8475 8.76875 3.5075 8.875 4.1875 C9.2153125 5.1775 9.2153125 5.1775 9.5625 6.1875 C11.21363777 6.89174873 12.88423442 7.55059589 14.5625 8.1875 C16.51343708 9.20377762 18.45096506 10.24616738 20.375 11.3125 C21.35082031 11.85132813 22.32664062 12.39015625 23.33203125 12.9453125 C24.06808594 13.35523438 24.80414063 13.76515625 25.5625 14.1875 C25.2840625 15.5178125 25.2840625 15.5178125 25 16.875 C24.58207516 20.03928811 24.75472258 22.13589642 25.5625 25.1875 C23.36738686 26.588764 21.16069045 27.95711427 18.9375 29.3125 C18.32003906 29.71082031 17.70257812 30.10914062 17.06640625 30.51953125 C13.88566673 32.42797496 12.14222888 33.2918512 8.4375 32.625 C5.60198765 31.20724383 2.88010216 29.73627972 0.1875 28.0625 C-0.68648438 27.52367188 -1.56046875 26.98484375 -2.4609375 26.4296875 C-3.11320313 26.01976563 -3.76546875 25.60984375 -4.4375 25.1875 C-4.251875 24.259375 -4.06625 23.33125 -3.875 22.375 C-3.19626119 19.17406229 -3.19626119 19.17406229 -4.4375 16.1875 C-5.4275 15.8575 -6.4175 15.5275 -7.4375 15.1875 C-7.46435412 12.87506208 -7.48382841 10.5625373 -7.5 8.25 C-7.51160156 6.96222656 -7.52320313 5.67445312 -7.53515625 4.34765625 C-7.36485472 -1.16330135 -4.93732906 0.02703904 0 0 Z M9.5625 10.1875 C9.2325 11.1775 8.9025 12.1675 8.5625 13.1875 C11.5325 14.1775 14.5025 15.1675 17.5625 16.1875 C17.5625 16.8475 17.5625 17.5075 17.5625 18.1875 C18.8825 17.5275 20.2025 16.8675 21.5625 16.1875 C19.94079621 15.18216333 18.31502763 14.18338093 16.6875 13.1875 C15.78257813 12.630625 14.87765625 12.07375 13.9453125 11.5 C11.72392533 10.02667671 11.72392533 10.02667671 9.5625 10.1875 Z M9.5625 16.1875 C7.9125 17.5075 6.2625 18.8275 4.5625 20.1875 C6.76082713 21.92416727 6.76082713 21.92416727 9.5625 23.1875 C12.73685434 22.37545587 14.24430575 21.50569425 16.5625 19.1875 C14.2525 18.1975 11.9425 17.2075 9.5625 16.1875 Z M-0.4375 22.1875 C2.31057973 25.13914119 4.88262377 27.4821915 8.5625 29.1875 C13.55788572 29.1875 17.55584871 25.881799 21.5625 23.1875 C19.68235438 22.54268381 19.68235438 22.54268381 17.5625 22.1875 C16.77875 22.6825 15.995 23.1775 15.1875 23.6875 C12.5625 25.1875 12.5625 25.1875 9.4375 25 C6.5625 24.1875 6.5625 24.1875 3.5625 22.1875 C2.2425 22.1875 0.9225 22.1875 -0.4375 22.1875 Z " fill="#0E6AE2" transform="translate(7.4375,-0.1875)"/>
<path d="M0 0 C1.79244141 0.01740234 1.79244141 0.01740234 3.62109375 0.03515625 C5.41740234 0.04869141 5.41740234 0.04869141 7.25 0.0625 C8.17683594 0.07410156 9.10367187 0.08570313 10.05859375 0.09765625 C10.08596082 1.49337677 10.10515364 2.88925846 10.12109375 4.28515625 C10.13269531 5.06246094 10.14429688 5.83976563 10.15625 6.640625 C10.05377948 9.21878336 9.62556928 11.58421356 9.05859375 14.09765625 C7.07949977 14.12452178 5.10030404 14.14399 3.12109375 14.16015625 C2.01894531 14.17175781 0.91679687 14.18335938 -0.21875 14.1953125 C-2.94140625 14.09765625 -2.94140625 14.09765625 -3.94140625 13.09765625 C-4.04014441 11.09966053 -4.07112424 9.09808467 -4.06640625 7.09765625 C-4.06898438 6.00453125 -4.0715625 4.91140625 -4.07421875 3.78515625 C-3.88830844 0.02320635 -3.79903485 0.12612998 0 0 Z " fill="#1A88FD" transform="translate(3.94140625,-0.09765625)"/>
<path d="M0 0 C2.3125 1.0625 2.3125 1.0625 4 2 C3.67 2.99 3.34 3.98 3 5 C0.69 4.34 -1.62 3.68 -4 3 C-4.99 3.99 -5.98 4.98 -7 6 C-3.88228073 7.60339848 -2.60988311 8.18974141 0.8125 7.125 C1.8953125 6.568125 1.8953125 6.568125 3 6 C1.02 8.97 1.02 8.97 -1 12 C-4.73487777 11.5020163 -6.81237635 11.12508244 -10 9 C-10.99 9 -11.98 9 -13 9 C-9.7 10.98 -6.4 12.96 -3 15 C-3.33 15.99 -3.66 16.98 -4 18 C-8.97209562 16.23570801 -13.43438061 13.6060834 -18 11 C-17.814375 10.0925 -17.62875 9.185 -17.4375 8.25 C-17.04265379 5.31685676 -17.05308428 3.7355343 -18 1 C-16.68 1 -15.36 1 -14 1 C-13.34 1.66 -12.68 2.32 -12 3 C-10.948125 2.319375 -9.89625 1.63875 -8.8125 0.9375 C-5.47296555 -0.96791985 -3.71866673 -1.40706309 0 0 Z " fill="#1076F5" transform="translate(21,14)"/>
<path d="M0 0 C3.96 0 7.92 0 12 0 C12 0.66 12 1.32 12 2 C10.68 2.33 9.36 2.66 8 3 C8.66 5.64 9.32 8.28 10 11 C9.34 11 8.68 11 8 11 C8 10.34 8 9.68 8 9 C6.35 9.66 4.7 10.32 3 11 C3.33 9.02 3.66 7.04 4 5 C2.35 4.67 0.7 4.34 -1 4 C-0.67 2.68 -0.34 1.36 0 0 Z " fill="#3AB9FF" transform="translate(1,0)"/>
<path d="M0 0 C1.32 0.66 2.64 1.32 4 2 C4 3.32 4 4.64 4 6 C1.71125827 7.33858524 -0.58069656 8.67101014 -2.875 10 C-3.52597656 10.3815625 -4.17695313 10.763125 -4.84765625 11.15625 C-9.7734375 14 -9.7734375 14 -12 14 C-11.8125 12.1875 -11.8125 12.1875 -11 10 C-8.51694081 8.27565334 -5.92742691 6.96206406 -3.25 5.5625 C-0.83951895 4.20614728 -0.83951895 4.20614728 -0.1875 1.8125 C-0.125625 1.214375 -0.06375 0.61625 0 0 Z " fill="#0E48C2" transform="translate(29,19)"/>
<path d="M0 0 C0.66 0 1.32 0 2 0 C1.75 1.875 1.75 1.875 1 4 C-1.93995019 6.02755186 -3.27704003 6 -7 6 C-7 5.34 -7 4.68 -7 4 C-8.98 4.33 -10.96 4.66 -13 5 C-13 4.01 -13 3.02 -13 2 C-9.04 2 -5.08 2 -1 2 C-0.67 1.34 -0.34 0.68 0 0 Z " fill="#013D8E" transform="translate(14,11)"/>
<path d="M0 0 C0.99 0.33 1.98 0.66 3 1 C4.1875 4.5625 4.1875 4.5625 5 8 C4.34 8 3.68 8 3 8 C3 7.34 3 6.68 3 6 C1.35 6.66 -0.3 7.32 -2 8 C-1.47731534 5.23723823 -0.89130413 2.6739124 0 0 Z " fill="#C8E4FF" transform="translate(6,3)"/>
<path d="M0 0 C0.66 0.33 1.32 0.66 2 1 C2 2.32 2 3.64 2 5 C-1.96 6.98 -1.96 6.98 -6 9 C-4.25618453 5.51236907 -2.47193291 2.96631949 0 0 Z " fill="#0D40B9" transform="translate(31,20)"/>
<path d="M0 0 C0.33 0 0.66 0 1 0 C1 2.31 1 4.62 1 7 C-0.65 7 -2.3 7 -4 7 C-4 5.68 -4 4.36 -4 3 C-2.68 2.67 -1.36 2.34 0 2 C0 1.34 0 0.68 0 0 Z " fill="#279DF7" transform="translate(13,0)"/>
<path d="M0 0 C3.63 0 7.26 0 11 0 C10.01 0.66 9.02 1.32 8 2 C7.34 1.67 6.68 1.34 6 1 C5.67 1.99 5.34 2.98 5 4 C2.525 3.01 2.525 3.01 0 2 C0 1.34 0 0.68 0 0 Z " fill="#34ABFF" transform="translate(0,2)"/>
<path d="M0 0 C2.475 0.99 2.475 0.99 5 2 C4.67 2.99 4.34 3.98 4 5 C1.525 4.01 1.525 4.01 -1 3 C-0.67 2.01 -0.34 1.02 0 0 Z " fill="#0F62E0" transform="translate(13,27)"/>
<path d="M0 0 C0.66 0.33 1.32 0.66 2 1 C0.71937515 2.7074998 -0.61767557 4.37373596 -2 6 C-2.66 6 -3.32 6 -4 6 C-3.6875 4.125 -3.6875 4.125 -3 2 C-2.01 1.34 -1.02 0.68 0 0 Z " fill="#0E51CC" transform="translate(21,27)"/>
<path d="M0 0 C1.65 0.33 3.3 0.66 5 1 C4.01 2.485 4.01 2.485 3 4 C1.68 3.67 0.36 3.34 -1 3 C-0.67 2.01 -0.34 1.02 0 0 Z " fill="#1074F3" transform="translate(16,18)"/>
</svg>
